# xmcd CD database file
#
# Track frame offsets:
#	150
#	22147
#	45462
#	68904
#	86160
#	102123
#	118834
#	137944
#	154210
#
# Disc length: 2246 seconds
#
# Revision: 3
# Processed by: cddbd v1.5.2PL0 Copyright (c) Steve Scherf et al.
# Submitted via: CDex 1.51
#
DISCID=7d08c409
DTITLE=Paul Butterfield - Better Days
DYEAR=1973
DGENRE=Blues
TTITLE0=New Walkin' Blues
TTITLE1=Please Send Me Someone To Love
TTITLE2=Broke My Baby's Heart
TTITLE3=Done a Lot of Wrong Things
TTITLE4=Baby Please Don't Go
TTITLE5=Buried Alive in the Blues
TTITLE6=Rule the Road
TTITLE7=Nobody's Fault But Mine
TTITLE8=Highway 28
EXTD=YEAR: 1973
EXTT0=
EXTT1=
EXTT2=
EXTT3=
EXTT4=
EXTT5=
EXTT6=
EXTT7=
EXTT8=
PLAYORDER=
